<mxfile host="65bd71144e">
    <diagram id="u8MSHQZNwuhBElPivfbZ" name="Slider">
        <mxGraphModel dx="1837" dy="1309" grid="1" gridSize="10" guides="1" tooltips="1" connect="1" arrows="1" fold="1" page="1" pageScale="1" pageWidth="1654" pageHeight="1169" background="#FFFFFF" math="0" shadow="0">
            <root>
                <mxCell id="0"/>
                <mxCell id="1" parent="0"/>
                <mxCell id="3" value="" style="dashed=0;verticalLabelPosition=bottom;verticalAlign=top;align=center;shape=mxgraph.gmdl.slider2;barPos=50.1;strokeColor=#3F51B5;opacity=100;strokeWidth=10;fillColor=#3F51B5;handleSize=20;shadow=0;" parent="1" vertex="1">
                    <mxGeometry x="77.5" y="480" width="1482.5" height="150" as="geometry"/>
                </mxCell>
                <mxCell id="24" value="Maximum Flexibilty" style="text;strokeColor=#82b366;fillColor=#d5e8d4;html=1;fontSize=24;fontStyle=1;verticalAlign=middle;align=center;" parent="1" vertex="1">
                    <mxGeometry x="75" y="40" width="280" height="80" as="geometry"/>
                </mxCell>
                <mxCell id="35" value="Minimum Integration" style="text;strokeColor=#b85450;fillColor=#f8cecc;html=1;fontSize=24;fontStyle=1;verticalAlign=middle;align=center;" parent="1" vertex="1">
                    <mxGeometry x="75" y="280" width="280" height="80" as="geometry"/>
                </mxCell>
                <mxCell id="36" value="Minimum Flexibility" style="text;strokeColor=#b85450;fillColor=#f8cecc;html=1;fontSize=24;fontStyle=1;verticalAlign=middle;align=center;" parent="1" vertex="1">
                    <mxGeometry x="1280" y="40" width="280" height="80" as="geometry"/>
                </mxCell>
                <mxCell id="37" value="Max Integration" style="text;strokeColor=#82b366;fillColor=#d5e8d4;html=1;fontSize=24;fontStyle=1;verticalAlign=middle;align=center;" parent="1" vertex="1">
                    <mxGeometry x="1280" y="280" width="280" height="80" as="geometry"/>
                </mxCell>
                <mxCell id="40" value="Out of Box" style="text;strokeColor=#b85450;fillColor=#f8cecc;html=1;fontSize=24;fontStyle=1;verticalAlign=middle;align=center;" parent="1" vertex="1">
                    <mxGeometry x="77.5" y="400" width="280" height="80" as="geometry"/>
                </mxCell>
                <mxCell id="41" value="Out of Box" style="text;strokeColor=#82b366;fillColor=#d5e8d4;html=1;fontSize=24;fontStyle=1;verticalAlign=middle;align=center;" parent="1" vertex="1">
                    <mxGeometry x="1280" y="400" width="280" height="80" as="geometry"/>
                </mxCell>
                <mxCell id="43" value="Raw K8s" style="text;strokeColor=#9673a6;fillColor=#e1d5e7;html=1;fontSize=30;fontStyle=1;verticalAlign=middle;align=center;" parent="1" vertex="1">
                    <mxGeometry x="75" y="600" width="285" height="80" as="geometry"/>
                </mxCell>
                <mxCell id="45" value="PaaS" style="text;strokeColor=#9673a6;fillColor=#e1d5e7;html=1;fontSize=30;fontStyle=1;verticalAlign=middle;align=center;" parent="1" vertex="1">
                    <mxGeometry x="1280" y="600" width="280" height="80" as="geometry"/>
                </mxCell>
                <mxCell id="50" value="&lt;b&gt;Tanzu&lt;/b&gt;" style="shape=singleArrow;whiteSpace=wrap;html=1;fontSize=30;strokeWidth=5;fillColor=#f5f5f5;fontColor=#333333;strokeColor=#666666;" parent="1" vertex="1">
                    <mxGeometry x="240" y="1040" width="1155" height="100" as="geometry"/>
                </mxCell>
                <mxCell id="51" value="&lt;b&gt;Rancher&lt;/b&gt;" style="shape=singleArrow;whiteSpace=wrap;html=1;fontSize=30;strokeWidth=5;fillColor=#f5f5f5;fontColor=#333333;strokeColor=#666666;" vertex="1" parent="1">
                    <mxGeometry x="240" y="910" width="600" height="100" as="geometry"/>
                </mxCell>
                <mxCell id="52" value="&lt;b&gt;Canonical&lt;/b&gt;" style="shape=singleArrow;whiteSpace=wrap;html=1;fontSize=30;strokeWidth=5;fillColor=#f5f5f5;fontColor=#333333;strokeColor=#666666;" vertex="1" parent="1">
                    <mxGeometry x="80" y="760" width="360" height="100" as="geometry"/>
                </mxCell>
                <mxCell id="53" value="&lt;b&gt;OpenShift&lt;/b&gt;" style="shape=singleArrow;whiteSpace=wrap;html=1;fontSize=30;strokeWidth=5;fillColor=#f5f5f5;fontColor=#333333;strokeColor=#666666;" vertex="1" parent="1">
                    <mxGeometry x="765" y="760" width="795" height="100" as="geometry"/>
                </mxCell>
                <mxCell id="54" value="Lock-in" style="text;strokeColor=#82b366;fillColor=#d5e8d4;html=1;fontSize=24;fontStyle=1;verticalAlign=middle;align=center;" vertex="1" parent="1">
                    <mxGeometry x="77.5" y="160" width="280" height="80" as="geometry"/>
                </mxCell>
                <mxCell id="55" value="Lock-In" style="text;strokeColor=#b85450;fillColor=#f8cecc;html=1;fontSize=24;fontStyle=1;verticalAlign=middle;align=center;" vertex="1" parent="1">
                    <mxGeometry x="1280" y="160" width="280" height="80" as="geometry"/>
                </mxCell>
            </root>
        </mxGraphModel>
    </diagram>
</mxfile>